<svg t="1671189552425" class="icon" viewBox="0 0 1024 1024" version="1.1" xmlns="http://www.w3.org/2000/svg" p-id="4426" width="200" height="200"><path d="M751.957 231.168h-6.144c0.086-2.048 0.598-4.01 0.598-6.144 0-59.392-48.299-107.776-107.691-107.776H385.28c-59.392 0-107.776 48.299-107.776 107.776 0 2.133 0.512 4.01 0.597 6.144h-6.144c-79.189 0-143.616 64.427-143.616 143.616v388.267c0 79.274 64.427 143.701 143.616 143.701h480c79.275 0 143.702-64.427 143.702-143.701V374.784c0-79.19-64.427-143.616-143.702-143.616zM385.28 202.667h253.44c12.373 0 22.357 10.069 22.357 22.442 0 59.051-48.042 107.179-107.178 107.179H470.1a107.264 107.264 0 0 1-107.178-107.179 22.272 22.272 0 0 1 22.357-22.442zM810.325 763.05a58.453 58.453 0 0 1-58.368 58.368h-480a58.453 58.453 0 0 1-58.282-58.368V374.784c0-32.085 26.197-58.283 58.282-58.283h29.782A192 192 0 0 0 470.1 417.536H553.9A192 192 0 0 0 722.26 316.501h29.782c32.17 0 58.368 26.198 58.368 58.283v388.267z" fill="#1afa29" p-id="4427"></path><path d="M610.133 547.584H413.867a42.667 42.667 0 0 0 0 85.333h196.266a42.667 42.667 0 0 0 0-85.333z" fill="#1afa29" p-id="4428"></path></svg>