<svg t="1671353971076" class="icon" viewBox="0 0 1024 1024" version="1.1" xmlns="http://www.w3.org/2000/svg" p-id="4182" width="200" height="200"><path d="M960 480h-88.9c-3.3-37.4-12.3-73.7-26.9-108.4C826 328.7 800 290.1 766.9 257c-33.1-33.1-71.7-59.1-114.6-77.2-34.6-14.7-71-23.6-108.3-26.9V64h-64v88.9c-37.4 3.3-73.7 12.3-108.3 26.9-42.9 18.2-81.5 44.1-114.6 77.2-33.1 33.1-59.1 71.7-77.3 114.6-14.7 34.7-23.7 71-26.9 108.4H64v64h88.9c3.3 37.4 12.3 73.7 26.9 108.4C198 695.3 224 733.9 257.1 767c33.1 33.1 71.7 59.1 114.6 77.2 34.6 14.7 71 23.7 108.3 26.9V960h64v-88.9c37.4-3.3 73.7-12.3 108.3-26.9 42.9-18.2 81.5-44.1 114.6-77.2 33.1-33.1 59.1-71.7 77.3-114.6 14.7-34.7 23.7-71 26.9-108.4H960v-64zM544 806.8V661.3h-64v145.5C342 791.9 232.1 682 217.2 544h145.5v-64H217.2C232.1 342 342 232.1 480 217.2v145.5h64V217.2C682 232.1 791.9 342 806.8 480H661.3v64h145.5C791.9 682 682 791.9 544 806.8z" fill="#ffffff" p-id="4183"></path></svg>