<svg t="1671190113886" class="icon" viewBox="0 0 1024 1024" version="1.1" xmlns="http://www.w3.org/2000/svg" p-id="7459" width="200" height="200"><path d="M 948.64 493.66 L 779.77 319.94 a 39.93 39.93 0 0 0 -28.63 -12.11 h -149.2 v -47.52 A 70.15 70.15 0 0 0 532 190 H 134 a 70.15 70.15 0 0 0 -70 70.31 v 489.12 a 40.09 40.09 0 0 0 40 40.18 h 19.93 C 124 860.53 181.28 918 251.91 918 s 127.89 -57.47 128 -128.39 H 644.4 c 0.1 70.92 57.36 128.39 128 128.39 s 127.89 -57.47 128 -128.39 H 960 V 521.69 a 40.25 40.25 0 0 0 -11.36 -28.03 Z m -648.74 296 a 48 48 0 1 1 -96 0 v -0.17 a 48 48 0 1 1 96 0 c 0.01 0.01 0 0.06 0 0.12 Z m 222.1 -80.4 H 352 a 127.62 127.62 0 0 0 -200.08 0 H 144 V 310.52 a 40.09 40.09 0 0 1 40 -40.17 h 298 a 40.09 40.09 0 0 1 40 40.17 Z m 298.43 80.35 a 48 48 0 1 1 -96 0 v -0.17 a 48 48 0 1 1 96 0 Z M 880 709.17 h -7.65 a 127.62 127.62 0 0 0 -199.94 0 H 602 V 388.1 h 131.71 l 146.3 150 Z" fill="#de89f5" p-id="7460"></path></svg>