<svg t="1671353840173" class="icon" viewBox="0 0 1024 1024" version="1.1" xmlns="http://www.w3.org/2000/svg" p-id="2547" width="200" height="200"><path d="M524.1 994.8c-24 0-46.5-10.4-62-28.8l-269-280.7c-0.9-0.9-1.7-1.8-2.4-2.8-52.9-67.7-82.1-144.5-84.5-222-0.8-25.1 0.8-50.7 4.7-75.9C139 205.4 290 62.6 470.2 44.9 586.2 33.3 697.3 70 783 147.8c84.5 76.6 133 186 133 300.1v1.7c-0.4 78.4-26.7 156.4-76.2 225.6L587 964.9c-13.6 17.7-36.4 29.3-61 29.8-0.6 0.1-1.3 0.1-1.9 0.1zM248 635.4l269.3 281c3.4 3.9 5.7 4.6 7.1 4.2 1.5 0 3.7-0.5 5.4-2.7l252-288.6c38.3-53.9 59.8-118.7 60.1-181.5h37-37c0-93.2-39.6-182.6-108.7-245.2-70-63.5-160.9-93.5-255.8-84C330.4 133.1 207 249.7 184.1 396c-3.2 20.7-4.5 41.7-3.9 62.2 2 61.1 25.4 122.4 67.8 177.2z" fill="#ffffff" p-id="2548"></path><path d="M511 634.9c-118.5 0-214.9-96.4-214.9-214.9S392.5 205.2 511 205.2 725.9 301.6 725.9 420 629.5 634.9 511 634.9z m0-355.6c-77.6 0-140.8 63.2-140.8 140.8S433.4 560.8 511 560.8 651.8 497.6 651.8 420 588.6 279.3 511 279.3z" fill="#ffffff" p-id="2549"></path><path d="M511 420m-50.8 0a50.8 50.8 0 1 0 101.6 0 50.8 50.8 0 1 0-101.6 0Z" fill="#ffffff" p-id="2550"></path></svg>